<svg id="visual" viewBox="0 0 900 600" width="900" height="600" xmlns="http://www.w3.org/2000/svg" xmlns:xlink="http://www.w3.org/1999/xlink" version="1.1"><path d="M0 277L82 277L164 223L245 199L327 163L409 151L491 265L573 241L655 271L736 235L818 241L900 175L900 0L818 0L736 0L655 0L573 0L491 0L409 0L327 0L245 0L164 0L82 0L0 0Z" fill="#00cc8e"></path><path d="M0 343L82 313L164 313L245 235L327 235L409 235L491 313L573 331L655 331L736 331L818 343L900 223L900 173L818 239L736 233L655 269L573 239L491 263L409 149L327 161L245 197L164 221L82 275L0 275Z" fill="#00b98a"></path><path d="M0 457L82 397L164 361L245 313L327 319L409 355L491 403L573 445L655 379L736 415L818 427L900 265L900 221L818 341L736 329L655 329L573 329L491 311L409 233L327 233L245 233L164 311L82 311L0 341Z" fill="#00a784"></path><path d="M0 547L82 529L164 439L245 463L327 481L409 499L491 547L573 553L655 541L736 511L818 517L900 469L900 263L818 425L736 413L655 377L573 443L491 401L409 353L327 317L245 311L164 359L82 395L0 455Z" fill="#00957c"></path><path d="M0 601L82 601L164 601L245 601L327 601L409 601L491 601L573 601L655 601L736 601L818 601L900 601L900 467L818 515L736 509L655 539L573 551L491 545L409 497L327 479L245 461L164 437L82 527L0 545Z" fill="#038373"></path></svg>