<svg xmlns="http://www.w3.org/2000/svg" width="128" height="100"><path d="M27.429 63.638q0-3.763-2.679-6.424t-6.464-2.662-6.465 2.662q-2.678 2.661-2.678 6.424 0 3.762 2.678 6.424t6.465 2.662 6.464-2.662q2.679-2.662 2.679-6.424m13.714-31.801q0-3.763-2.679-6.424T32 22.751q-3.786 0-6.464 2.662t-2.679 6.424q0 3.763 2.679 6.424T32 40.923q3.786 0 6.464-2.662t2.679-6.424M71.714 65.98l7.215-27.116q.428-1.845-.536-3.443-.965-1.596-2.75-2.094-1.785-.496-3.429.462t-2.143 2.804l-7.214 27.116q-4.286.355-7.643 3.088t-4.5 6.992q-1.428 5.466 1.429 10.364Q55 89.05 60.5 90.47t10.429-1.42q4.927-2.838 6.357-8.305 1.143-4.259-.429-8.305-1.571-4.045-5.143-6.46m47.143-2.342q0-3.762-2.678-6.424t-6.465-2.662q-3.785 0-6.464 2.662t-2.679 6.424 2.679 6.424q2.678 2.662 6.464 2.662t6.465-2.662q2.678-2.662 2.678-6.424m-45.714-45.43q0-3.763-2.679-6.425Q67.787 9.123 64 9.122q-3.786 0-6.464 2.661t-2.679 6.425q0 3.762 2.679 6.424 2.678 2.661 6.464 2.662t6.464-2.662q2.679-2.662 2.679-6.424m32 13.629q0-3.763-2.679-6.424T96 22.751q-3.786 0-6.464 2.662t-2.679 6.424q0 3.763 2.679 6.424T96 40.923q3.786 0 6.464-2.662t2.679-6.424M128 63.638q0 18.527-10.071 34.286-1.357 2.058-3.858 2.058H13.93q-2.5 0-3.858-2.058Q0 82.236 0 63.638q0-12.92 5.071-24.703 5.072-11.783 13.643-20.301 8.572-8.52 20.429-13.559Q51 .035 64 .035t24.857 5.04 20.429 13.559q8.571 8.518 13.643 20.301 5.07 11.784 5.071 24.703"/></svg>