<svg xmlns="http://www.w3.org/2000/svg" width="258" height="256" class="icon" viewBox="0 0 1032 1024"><path d="M70.017 962.286V612.364q0-35.868 25.819-61.674 25.818-25.807 61.702-25.807h87.522c23.952 0 44.519 8.602 61.732 25.807 17.183 17.204 25.79 37.762 25.79 61.674v349.922zm375.904-936.48q-25.818 25.807-25.818 61.675v874.805h262.564V87.48c0-23.912-8.607-44.47-25.79-61.674C639.665 8.602 619.097 0 595.145 0h-87.521q-35.884 0-61.703 25.807s17.213-17.205 0 0zm350.086 262.442q-25.82 25.807-25.819 61.674v612.364h262.564V349.922c0-23.911-8.606-44.47-25.79-61.674-17.212-17.204-37.78-25.806-61.731-25.806h-87.522q-35.884 0-61.702 25.806"/></svg>