<svg xmlns="http://www.w3.org/2000/svg" width="128" height="128"><path d="M84.068 23.784q-1.53 0-2.572-.96a8.6 8.6 0 0 1-1.738-2.237 11.5 11.5 0 0 1-1.042-2.621q-.348-1.343-.348-2.238V0h.278q1.251 0 2.363.256 1.112.255 2.711 1.214 1.599.96 3.892 2.686 2.295 1.725 5.77 4.54 3.753 3.068 5.977 5.178t3.406 3.58q1.18 1.47 1.46 2.494.277 1.023.277 1.79v2.046zM127.3 84.01q.418 1.023.556 2.558.14 1.534-1.39 2.94-.695.64-1.25 1.215-.557.576-.974.96a6.7 6.7 0 0 1-.973.767l-11.816-10.741a44 44 0 0 0 1.877-1.535 31 31 0 0 1 1.737-1.406q1.668-1.407 3.615-1.215 1.946.192 3.197.83 1.39.64 2.989 2.239t2.432 3.388M78.23 95.902q3.057 0 5.143-1.534l-26.969 25.83H18.037q-2.641 0-5.77-1.407a24.6 24.6 0 0 1-5.838-3.709 21.4 21.4 0 0 1-4.518-5.306q-1.806-3.004-1.807-6.202V16.495q0-2.685 1.32-5.626A18.4 18.4 0 0 1 5.04 5.562a21.8 21.8 0 0 1 5.213-3.964Q13.171 0 16.37 0h53.24v15.984q0 2.43.834 5.242a16.7 16.7 0 0 0 2.572 5.179q1.739 2.365 4.518 3.964t6.673 1.598h20.295v42.325L85.458 92.45q1.53-2.046 1.529-4.476 0-3.324-2.572-5.69t-6.186-2.366H26.1q-3.614 0-6.116 2.366t-2.502 5.69q0 3.325 2.502 5.626t6.117 2.302h52.13zM26.1 47.951q-3.615 0-6.117 2.366t-2.502 5.69 2.502 5.626 6.117 2.302h52.13q3.613 0 6.185-2.302t2.572-5.626q0-3.325-2.572-5.69t-6.186-2.366zm52.407 64.063l1.807-1.663 3.476-3.196a480 480 0 0 0 4.587-4.284 501 501 0 0 1 5.004-4.667q5.978-5.499 13.485-12.276l11.677 10.741-13.485 12.404-5.004 4.603-4.587 4.22a180 180 0 0 0-3.267 3.068q-1.32 1.28-1.46 1.407-.695.511-1.529 1.087-.834.575-1.668.959-.834.383-2.572.959a84 84 0 0 1-3.545 1.087 72 72 0 0 1-3.475.895q-1.668.384-2.502.511-1.668.255-2.224-.383-.557-.64-.278-2.174.139-.767.556-2.302.417-1.534.973-3.132l1.042-3.005q.487-1.407.765-1.918a10.2 10.2 0 0 1 2.224-2.941"/></svg>