<svg xmlns="http://www.w3.org/2000/svg" width="256" height="256" class="icon" viewBox="0 0 1024 1024"><path d="M950.857 512q0 89.143-34.857 170.286t-93.714 140-140 93.714T512 950.857q-98.286 0-186.857-41.428T174.286 792.57q-4-5.714-3.715-12.857T175.43 768l78.285-78.857Q259.43 684 268 684q9.143 1.143 13.143 6.857 41.714 54.286 102.286 84T512 804.571q59.429 0 113.429-23.142t93.428-62.572 62.572-93.428T804.57 512t-23.14-113.429-62.572-93.428-93.428-62.572T512 219.43q-56 0-107.429 20.285t-91.428 58l78.286 78.857q17.714 17.143 8 39.429-9.715 22.857-33.715 22.857h-256Q94.857 438.857 84 428t-10.857-25.714v-256q0-24 22.857-33.715 22.286-9.714 39.429 8l74.285 73.715q61.143-57.715 139.715-89.429T512 73.143q89.143 0 170.286 34.857t140 93.714 93.714 140T950.857 512M585.143 347.429v256q0 8-5.143 13.142t-13.143 5.143H384q-8 0-13.143-5.143t-5.143-13.142v-36.572q0-8 5.143-13.143T384 548.571h128V347.43q0-8 5.143-13.143t13.143-5.143h36.571q8 0 13.143 5.143t5.143 13.143"/></svg>