<svg xmlns="http://www.w3.org/2000/svg" width="256" height="256" class="icon" viewBox="0 0 1024 1024"><path d="M832 0a192 192 0 0 1 192 192v640a192 192 0 0 1-192 192H192A192 192 0 0 1 0 832V192A192 192 0 0 1 192 0h128v128H192c-35.328 0-64 28.672-64 64v640a64 64 0 0 0 64 64h640c35.392 0 64-28.608 64-64V192a64 64 0 0 0-64-64H704V0zM320 640h384l128 192H192zm146.752-146.752l-128-128a64.11 64.11 0 0 1-13.888-69.76A64.04 64.04 0 0 1 384 256h64V64a64 64 0 0 1 64-64c35.392 0 64 28.608 64 64v192h64c25.856 0 49.28 15.616 59.136 39.488a64.21 64.21 0 0 1-13.888 69.76l-128 128A63.83 63.83 0 0 1 512 512a63.83 63.83 0 0 1-45.248-18.752"/></svg>