<svg xmlns="http://www.w3.org/2000/svg" width="256" height="256" class="icon" viewBox="0 0 1024 1024"><path d="M191.992 832.008l127.995-191.992H703.97l127.994 191.992zm191.992-575.976a64.04 64.04 0 0 1-59.134-39.486 65.3 65.3 0 0 1-4.543-18.432 63.93 63.93 0 0 1 18.43-51.39L466.734 18.73A63.83 63.83 0 0 1 511.979-.021c16.383 0 32.766 6.271 45.246 18.75l127.994 127.996a64.42 64.42 0 0 1 13.888 69.82 64.04 64.04 0 0 1-59.134 39.487h-63.997v191.992c0 35.39-28.607 63.997-63.997 63.997a63.997 63.997 0 0 1-63.998-63.997V256.032zM831.965.042a191.99 191.99 0 0 1 191.992 191.993v639.973A191.99 191.99 0 0 1 831.965 1024H191.992A191.99 191.99 0 0 1 0 832.008V192.035A191.99 191.99 0 0 1 191.992.043h112.443l-56.253 56.19a191.46 191.46 0 0 0-45.31 71.804h-10.88c-35.327 0-63.997 28.671-63.997 63.998v639.973a63.997 63.997 0 0 0 63.997 63.997h639.973c35.39 0 63.998-28.606 63.998-63.997V192.035a63.997 63.997 0 0 0-63.998-63.998h-10.943a192.5 192.5 0 0 0-45.31-71.805L719.522.042z"/></svg>