<svg xmlns="http://www.w3.org/2000/svg" width="256.25" height="256" class="icon" viewBox="0 0 1025 1024"><path d="M1008 6.286q18.858 13.714 15.43 36.571L877.143 920.571q-2.858 16.572-18.286 25.715-8 4.571-17.714 4.571-6.286 0-13.715-2.857L568.572 842.286l-138.286 168.571q-10.285 13.143-28 13.143-7.428 0-12.571-2.286-10.857-4-17.429-13.428t-6.571-20.857V788l493.714-605.143L248.572 711.43 22.858 618.857Q1.715 610.857 0 587.43q-1.143-22.858 18.285-33.715L969.144 5.143Q977.715 0 987.429 0q11.429 0 20.572 6.286"/></svg>