<svg xmlns="http://www.w3.org/2000/svg" width="256" height="256" class="icon" viewBox="0 0 1024 1024"><path d="M405.808 1024A521.4 521.4 0 0 1 228.4 951.584 136.528 136.528 0 0 0 73.92 798.736 519.2 519.2 0 0 1 0 623.088l2.816-2.112a136.528 136.528 0 0 0 0-217.952L0 400.912a519.2 519.2 0 0 1 73.92-175.648A136.528 136.528 0 0 0 228.4 72.416 521.4 521.4 0 0 1 405.808 0a136.544 136.544 0 0 0 212.384 0A521.4 521.4 0 0 1 795.6 72.416a136.528 136.528 0 0 0 154.48 152.848c34.704 52.688 60.112 112 73.92 175.648l-2.816 2.112a136.528 136.528 0 0 0 0 217.952l2.816 2.112a519.2 519.2 0 0 1-73.92 175.648A136.528 136.528 0 0 0 795.6 951.584 521.4 521.4 0 0 1 618.192 1024a136.544 136.544 0 0 0-212.384 0M512 765.44c144.656 0 261.92-117.024 261.92-261.376S656.656 242.688 512 242.688 250.08 359.712 250.08 504.064 367.344 765.44 512 765.44"/></svg>