<svg xmlns="http://www.w3.org/2000/svg" width="128" height="128"><path d="M.006.064h127.988v31.104H.006zm0 38.016h38.396v41.472H.006zm0 48.384h38.396v41.472H.006zM44.802 38.08h38.396v41.472H44.802zm0 48.384h38.396v41.472H44.802zM89.598 38.08h38.396v41.472H89.598zm0 48.384h38.396v41.472H89.598z"/><path d="M.006.064h127.988v31.104H.006zm0 38.016h38.396v41.472H.006zm0 48.384h38.396v41.472H.006zM44.802 38.08h38.396v41.472H44.802zm0 48.384h38.396v41.472H44.802zM89.598 38.08h38.396v41.472H89.598zm0 48.384h38.396v41.472H89.598z"/></svg>