<svg xmlns="http://www.w3.org/2000/svg" width="256" height="256" class="icon" viewBox="0 0 1024 1024"><path d="M298.667 981.333A85.333 85.333 0 0 1 213.333 896V128a85.333 85.333 0 0 1 85.334-85.333h426.666A85.333 85.333 0 0 1 810.667 128v768a85.333 85.333 0 0 1-85.334 85.333zm640-213.333V256a42.667 42.667 0 0 1 42.666-42.667A42.667 42.667 0 0 1 1024 256v512a42.667 42.667 0 0 1-42.667 42.667A42.667 42.667 0 0 1 938.667 768M0 768V256a42.667 42.667 0 0 1 42.667-42.667A42.667 42.667 0 0 1 85.333 256v512a42.667 42.667 0 0 1-42.666 42.667A42.667 42.667 0 0 1 0 768"/></svg>