<svg xmlns="http://www.w3.org/2000/svg" width="128" height="128"><path d="M126.713 90.023Q128 91.501 128 93.47v29.553q0 2.135-1.287 3.53t-3.146 1.395H97.824q-1.717 0-3.004-1.395t-1.287-3.53V93.47q0-1.313.572-2.462.573-1.149 1.573-1.806a3.84 3.84 0 0 1 2.146-.657h9.725V69.007a3.84 3.84 0 0 0-.43-1.806 3.6 3.6 0 0 0-1.143-1.313 2.7 2.7 0 0 0-1.573-.492h-36.47v23.149h9.725q1.716 0 3.004 1.478 1.287 1.478 1.287 3.447v29.553q0 1.313-.573 2.463-.57 1.149-1.573 1.806a3.84 3.84 0 0 1-2.145.656H51.915a3.84 3.84 0 0 1-2.145-.656q-1.002-.657-1.645-1.806a4.96 4.96 0 0 1-.644-2.463V93.47q0-1.97 1.288-3.447 1.287-1.478 3.146-1.478h9.582v-23.15h-37.9q-1.43 0-2.359 1.068-.93 1.067-.93 2.544v19.538h9.726q1.859 0 3.074 1.478 1.216 1.478 1.216 3.447v29.553q0 2.135-1.216 3.53t-3.074 1.395H4.29q-.715 0-1.358-.246a4.1 4.1 0 0 1-1.144-.657 4.7 4.7 0 0 1-.93-1.067 5.2 5.2 0 0 1-.643-1.395 5.6 5.6 0 0 1-.215-1.56V93.47q0-.656.143-1.313a4 4 0 0 1 .429-1.15q.286-.492.715-.984.429-.493.858-.821.43-.329 1.001-.493.573-.165 1.144-.164h9.726V61.619q0-1.478.93-2.544.929-1.068 2.216-1.068h44.335V39.62h-9.582q-1.86 0-3.146-1.477a5.1 5.1 0 0 1-1.287-3.448V5.14q0-2.134 1.287-3.612Q50.056.051 51.915.051h25.743q1.145 0 2.145.739a5.2 5.2 0 0 1 1.573 1.888q.573 1.15.573 2.462v29.553q0 1.97-1.287 3.448-1.288 1.477-3.004 1.477h-9.725v18.389h42.762q1.43 0 2.36 1.067t.93 2.545v26.925h9.582q1.859 0 3.146 1.478z"/></svg>